<svg aria-hidden="true" style="position: absolute; width: 0; height: 0; overflow: hidden;" version="1.1"
  xmlns="http://www.w3.org/2000/svg" xmlns:xlink="http://www.w3.org/1999/xlink">
  <defs>
    <symbol id="icon-basket" viewBox="0 0 21 32">
      <path
        d="M10.667 0c-1.454 0.001-2.848 0.59-3.878 1.636-1.029 1.047-1.607 2.467-1.61 3.949v2.72h-4.465c-0.395 0-0.714 0.325-0.714 0.727v18.604c0 2.41 1.918 4.364 4.282 4.364h12.769c2.364 0 4.282-1.953 4.282-4.364v-18.604c0-0.193-0.075-0.378-0.209-0.514s-0.315-0.213-0.505-0.213h-4.465v-2.72c-0.003-1.482-0.581-2.902-1.61-3.949-1.030-1.047-2.424-1.635-3.878-1.636h0zM6.606 5.585c0-2.286 1.818-4.138 4.061-4.138s4.061 1.852 4.061 4.138v2.72h-8.121v-2.72zM19.906 9.76v17.876c0 0.771-0.301 1.511-0.836 2.057s-1.262 0.852-2.018 0.852h-12.769c-1.577 0-2.855-1.303-2.855-2.909v-17.876h3.751v3.935c0 0.402 0.319 0.727 0.714 0.727 0.393 0 0.714-0.325 0.714-0.727v-3.935h8.121v3.935c0 0.402 0.321 0.727 0.714 0.727 0.395 0 0.714-0.325 0.714-0.727v-3.935h3.751z">
      </path>
    </symbol>
    <symbol id="icon-close" viewBox="0 0 32 32">
      <path
        d="M0.375 31.625c0.5 0.5 1.31 0.5 1.81 0l13.815-13.815 13.815 13.815c0.5 0.5 1.31 0.5 1.81 0s0.5-1.31 0-1.81l-13.815-13.815 13.815-13.815c0.5-0.5 0.5-1.31 0-1.81s-1.31-0.5-1.81 0l-13.815 13.815-13.815-13.815c-0.5-0.5-1.31-0.5-1.81 0s-0.5 1.31 0 1.81l13.815 13.815-13.815 13.815c-0.5 0.5-0.5 1.31 0 1.81z">
      </path>
    </symbol>
    <symbol id="icon-facebook" viewBox="0 0 17 32">
      <path
        d="M13.767 5.313h3.075v-5.088c-0.529-0.069-2.354-0.225-4.478-0.225-4.434 0-7.471 2.65-7.471 7.519v4.481h-4.893v5.688h4.893v14.312h5.997v-14.312h4.695l0.746-5.688h-5.442v-3.919c0-1.644 0.466-2.769 2.877-2.769z">
      </path>
    </symbol>
    <symbol id="icon-insta" viewBox="0 0 32 32">
      <path
        d="M31.887 9.402c0.15 2.642 0.15 10.554 0 13.196-0.128 2.564-0.714 4.834-2.584 6.705-1.87 1.878-4.14 2.463-6.703 2.585-2.641 0.15-10.558 0.15-13.2 0-2.563-0.128-4.826-0.714-6.703-2.585s-2.463-4.141-2.584-6.705c-0.15-2.642-0.15-10.561 0-13.203 0.129-2.563 0.707-4.834 2.584-6.705s4.148-2.456 6.703-2.578c2.641-0.15 10.558-0.15 13.2 0 2.563 0.129 4.833 0.714 6.703 2.585 1.878 1.871 2.463 4.141 2.584 6.705zM24.542 9.374c-1.064 0-1.913-0.857-1.913-1.914s0.857-1.914 1.913-1.914c1.056 0 1.913 0.857 1.913 1.914 0 1.064-0.857 1.914-1.913 1.914zM16.004 7.796c-4.54 0-8.203 3.663-8.203 8.204s3.662 8.204 8.203 8.204c4.54 0 8.203-3.663 8.203-8.204s-3.662-8.204-8.203-8.204zM16.004 21.334c-2.934 0-5.333-2.392-5.333-5.334s2.392-5.334 5.333-5.334c2.941 0 5.333 2.392 5.333 5.334s-2.399 5.334-5.333 5.334zM25.434 28.474c1.406-0.564 2.484-1.642 3.041-3.042 0.716-1.801 0.677-5.739 0.651-8.293-0.004-0.423-0.008-0.809-0.008-1.14s0.004-0.717 0.008-1.14c0.026-2.552 0.066-6.486-0.651-8.293-0.564-1.407-1.642-2.485-3.041-3.042-1.806-0.713-5.763-0.675-8.315-0.65-0.414 0.004-0.791 0.008-1.116 0.008-0.331 0-0.716-0.004-1.14-0.008-2.551-0.026-6.484-0.066-8.291 0.651-1.406 0.564-2.484 1.642-3.041 3.042-0.713 1.806-0.675 5.764-0.65 8.316 0.004 0.414 0.008 0.791 0.008 1.116 0 0.331-0.004 0.717-0.008 1.14-0.026 2.552-0.066 6.486 0.651 8.293 0.564 1.407 1.642 2.485 3.041 3.042 1.806 0.713 5.763 0.675 8.315 0.65 0.414-0.004 0.791-0.008 1.116-0.008 0.331 0 0.716 0.004 1.14 0.008 2.551 0.026 6.485 0.066 8.291-0.651z">
      </path>
    </symbol>
    <symbol id="icon-menu-burger" viewBox="0 0 43 32">
      <path d="M0 0h42.667v6.4h-42.667v-6.4zM0 12.8h42.667v6.4h-42.667v-6.4zM42.667 25.6h-42.667v6.4h42.667v-6.4z">
      </path>
    </symbol>
    <symbol id="icon-search" viewBox="0 0 30 32">
      <path
        d="M3.899 3.905c2.518-2.518 5.866-3.905 9.427-3.905s6.909 1.387 9.427 3.905c4.877 4.876 5.179 12.622 0.905 17.853l6.263 6.263c0.526 0.526 0.526 1.379 0 1.906-0.263 0.263-0.608 0.395-0.953 0.395s-0.69-0.132-0.953-0.395l-6.263-6.263c-2.373 1.942-5.318 2.999-8.427 2.999-3.561 0-6.909-1.387-9.427-3.905-5.198-5.197-5.198-13.655 0-18.854l0 0zM5.805 20.853c2.010 2.010 4.68 3.115 7.521 3.115s5.511-1.107 7.521-3.115c4.147-4.147 4.147-10.896 0-15.042-2.010-2.008-4.68-3.115-7.521-3.115s-5.511 1.107-7.521 3.115c-4.147 4.148-4.147 10.896 0 15.042z">
      </path>
    </symbol>
    <symbol id="icon-snapchat" viewBox="0 0 34 32">
      <path
        d="M33.702 25.086c-0.344 0.808-1.797 1.402-4.444 1.816-0.136 0.185-0.249 0.976-0.429 1.593-0.107 0.37-0.371 0.59-0.8 0.59l-0.020-0c-0.62 0-1.267-0.287-2.563-0.287-1.75 0-2.353 0.402-3.711 1.369-1.44 1.026-2.822 1.912-4.884 1.822-2.088 0.155-3.828-1.124-4.807-1.822-1.367-0.974-1.968-1.368-3.71-1.368-1.245 0-2.028 0.314-2.563 0.314-0.533 0-0.74-0.327-0.82-0.601-0.178-0.611-0.291-1.413-0.43-1.604-1.364-0.213-4.441-0.754-4.519-2.137-0.020-0.36 0.233-0.677 0.586-0.736 4.591-0.761 6.658-5.511 6.744-5.713 0.005-0.012 0.010-0.023 0.016-0.034 0.245-0.501 0.3-0.921 0.162-1.247-0.333-0.791-1.773-1.075-2.378-1.316-1.564-0.623-1.782-1.338-1.69-1.829 0.161-0.853 1.433-1.379 2.177-1.027 0.588 0.278 1.111 0.419 1.553 0.419 0.331 0 0.542-0.080 0.657-0.144-0.135-2.389-0.468-5.803 0.375-7.71 2.228-5.034 6.951-5.425 8.344-5.425 0.062 0 0.603-0.006 0.667-0.006 3.44 0 6.746 1.78 8.36 5.428 0.843 1.905 0.511 5.305 0.376 7.712 0.105 0.058 0.287 0.129 0.567 0.142 0.422-0.019 0.911-0.159 1.456-0.416 0.401-0.189 0.95-0.164 1.351 0.004l0.002 0.001c0.625 0.225 1.018 0.679 1.028 1.188 0.012 0.648-0.562 1.208-1.707 1.663-0.14 0.056-0.31 0.11-0.491 0.168-0.646 0.207-1.623 0.519-1.888 1.148-0.137 0.326-0.083 0.745 0.162 1.246 0.006 0.011 0.011 0.023 0.016 0.034 0.086 0.201 2.152 4.95 6.744 5.713 0.424 0.070 0.737 0.524 0.51 1.054z">
      </path>
    </symbol>
    <symbol id="icon-twitter" viewBox="0 0 40 32">
      <path
        d="M35.888 7.975c0.025 0.35 0.025 0.7 0.025 1.050 0 10.675-8.249 22.975-23.325 22.975-4.645 0-8.959-1.325-12.589-3.625 0.66 0.075 1.294 0.1 1.98 0.1 3.832 0 7.36-1.275 10.178-3.45-3.604-0.075-6.624-2.4-7.665-5.6 0.508 0.075 1.015 0.125 1.548 0.125 0.736 0 1.472-0.1 2.157-0.275-3.756-0.75-6.574-4-6.574-7.925v-0.1c1.091 0.6 2.36 0.975 3.706 1.025-2.208-1.45-3.655-3.925-3.655-6.725 0-1.5 0.406-2.875 1.117-4.075 4.036 4.9 10.102 8.1 16.904 8.45-0.127-0.6-0.203-1.225-0.203-1.85 0-4.45 3.655-8.075 8.198-8.075 2.36 0 4.492 0.975 5.99 2.55 1.853-0.35 3.629-1.025 5.203-1.95-0.609 1.875-1.904 3.45-3.604 4.45 1.65-0.175 3.249-0.625 4.721-1.25-1.117 1.6-2.513 3.025-4.112 4.175z">
      </path>
    </symbol>
    <symbol id="icon-youtube" viewBox="0 0 45 32">
      <path
        d="M39.903 0.957c1.927 0.527 3.446 2.079 3.961 4.050 0.936 3.572 0.936 11.025 0.936 11.025s0 7.453-0.936 11.025c-0.515 1.971-2.033 3.458-3.961 3.985-3.494 0.957-17.503 0.957-17.503 0.957s-14.009 0-17.503-0.957c-1.928-0.527-3.446-2.014-3.961-3.985-0.936-3.572-0.936-11.025-0.936-11.025s0-7.453 0.936-11.025c0.515-1.971 2.033-3.523 3.961-4.050 3.494-0.957 17.503-0.957 17.503-0.957s14.009 0 17.503 0.957zM17.818 9.265v13.534l11.709-6.767-11.709-6.767z">
      </path>
    </symbol>
    <symbol id="icon-logo" viewBox="0 0 168 32">
      <path
        d="M9.689 31.684l1.998-5.822h12.033l1.998 5.822h8.264l-11.761-31.684h-8.945l-11.761 31.684h8.173zM21.722 19.994h-8.037l4.041-11.735 3.996 11.735zM52.259 30.646c1.438-0.873 2.52-2.046 3.247-3.521v4.559h7.81v-25.185h-7.81v13.36c0 1.835-0.454 3.25-1.362 4.242s-2.149 1.489-3.723 1.489c-1.514 0-2.717-0.474-3.61-1.422s-1.339-2.279-1.339-3.994v-13.676h-7.719v14.623c0 3.37 0.855 6.018 2.565 7.944s4.019 2.888 6.925 2.888c1.907 0 3.58-0.436 5.018-1.309zM77.573 31.684h-7.765v-25.185h7.765v4.739c0.969-1.535 2.217-2.753 3.746-3.656s3.186-1.354 4.972-1.354v8.26h-2.225c-2.058 0-3.655 0.436-4.79 1.309s-1.703 2.347-1.703 4.423v11.464zM109.291 30.443c1.983-1.038 3.542-2.535 4.677-4.491s1.703-4.243 1.703-6.86c0-2.618-0.568-4.905-1.703-6.86s-2.694-3.453-4.677-4.491c-1.983-1.038-4.231-1.557-6.743-1.557s-4.768 0.519-6.766 1.557c-1.998 1.038-3.564 2.535-4.7 4.491s-1.703 4.243-1.703 6.86c0 2.618 0.568 4.904 1.703 6.86s2.702 3.453 4.7 4.491c1.998 1.038 4.253 1.557 6.766 1.557s4.76-0.519 6.743-1.557zM102.548 25.275c-1.483 0-2.732-0.527-3.746-1.58s-1.521-2.588-1.521-4.604c0-2.016 0.507-3.558 1.521-4.626s2.263-1.602 3.746-1.602 2.725 0.534 3.723 1.602c0.999 1.068 1.498 2.61 1.498 4.626s-0.499 3.55-1.498 4.604c-0.999 1.053-2.24 1.58-3.723 1.58zM128.612 20.22c0-2.076 0.568-3.551 1.703-4.423s2.732-1.309 4.791-1.309h2.225v-8.26c-1.786 0-3.443 0.451-4.972 1.354s-2.777 2.121-3.746 3.656v-4.739h-7.765v25.185h7.765v-11.464zM151.361 32c-2.089 0-3.958-0.519-5.608-1.557s-2.952-2.535-3.905-4.491-1.43-4.243-1.43-6.86c0-2.648 0.477-4.942 1.43-6.883s2.255-3.43 3.905-4.468c1.65-1.038 3.519-1.557 5.608-1.557 1.938 0 3.602 0.436 4.995 1.309s2.422 2.061 3.088 3.566v-4.559h7.719v25.185h-7.719v-4.559c-0.666 1.505-1.695 2.693-3.088 3.566s-3.057 1.309-4.995 1.309zM149.84 23.605c1.014 1.083 2.354 1.625 4.019 1.625 1.635 0 2.974-0.557 4.019-1.67s1.566-2.603 1.566-4.468c0-1.896-0.522-3.393-1.566-4.491s-2.384-1.647-4.019-1.647c-1.665 0-3.004 0.542-4.019 1.625s-1.521 2.588-1.521 4.513c0 1.926 0.507 3.43 1.521 4.513z">
      </path>
    </symbol>
    <symbol id="icon-chevron-left" viewBox="0 0 22 32">
      <path d="M20.444 28.855l-13.277-12.855 13.277-12.855-1.976-1.914-15.255 14.769 15.255 14.769 1.976-1.915z"></path>
    </symbol>
    <symbol id="icon-chevron-right" viewBox="0 0 21 32">
      <path d="M2.147 2.074l14.384 13.926-14.384 13.926 2.141 2.074 16.526-16-16.526-16-2.141 2.074z"></path>
    </symbol>
    <symbol id="icon-location" viewBox="0 0 21 32">
      <path
        d="M10.607 0.319c0.020-0.003 0.039-0.005 0.059-0.005l0 0h0.043c0.026 0 0.051 0.004 0.075 0.011 5.817 0.061 10.548 4.483 10.548 9.968 0 1.788-0.52 3.465-1.398 4.914v0.011c-0.009 0.022-0.020 0.043-0.032 0.065v-0.001c-0.002 0.003-0.004 0.005-0.007 0.007-0.001 0.001-0.003 0.002-0.004 0.004v0.011h-0.011c-0.003 0.012-0.007 0.023-0.011 0.034v0l-8.828 14.452c-0.069 0.112-0.191 0.18-0.323 0.18s-0.254-0.069-0.323-0.18l-8.936-14.452c-0.002-0.003-0.004-0.005-0.007-0.007-0.001-0.001-0.003-0.002-0.004-0.004-0.012-0.017-0.023-0.035-0.032-0.054-0.004-0.011-0.008-0.021-0.011-0.032v-0.011c-0.887-1.454-1.409-3.139-1.409-4.936 0-5.485 4.731-9.907 10.548-9.968 0.020 0 0.040-0.003 0.059-0.005zM16.451 10.689c0-3.192-2.593-5.785-5.785-5.785s-5.785 2.593-5.785 5.785 2.593 5.785 5.785 5.785c3.192 0 5.785-2.593 5.785-5.785z">
      </path>
    </symbol>
    <symbol id="icon-chevron-down" viewBox="0 0 52 32">
      <path d="M46.889 2l-20.889 21.576-20.889-21.576-3.111 3.211 24 24.789 24-24.789-3.111-3.211z"></path>
    </symbol>
  </defs>
</svg>