<svg width="19" height="19" viewBox="0 0 19 19" fill="none" xmlns="http://www.w3.org/2000/svg">
<path id="insta" fill-rule="evenodd" clip-rule="evenodd" d="M18.9332 5.58256C18.8612 4.06053 18.5136 2.71232 17.3988 1.60153C16.2883 0.49074 14.9404 0.143088 13.4187 0.0667745C11.8504 -0.0222582 7.14964 -0.0222582 5.58132 0.0667745C4.06386 0.138849 2.71595 0.4865 1.60117 1.59729C0.486392 2.70808 0.143056 4.05629 0.0667596 5.57832C-0.0222532 7.14699 -0.0222532 11.8488 0.0667596 13.4174C0.138818 14.9395 0.486392 16.2877 1.60117 17.3985C2.71595 18.5093 4.05962 18.8569 5.58132 18.9332C7.14964 19.0223 11.8504 19.0223 13.4187 18.9332C14.9404 18.8612 16.2883 18.5135 17.3988 17.3985C18.5094 16.2877 18.8569 14.9395 18.9332 13.4174C19.0223 11.8488 19.0223 7.15123 18.9332 5.58256ZM14.5716 5.5656C15.1989 5.5656 15.7076 5.06108 15.7076 4.42938C15.7076 3.80191 15.1989 3.29315 14.5716 3.29315C13.9443 3.29315 13.4356 3.80191 13.4356 4.42938C13.4356 5.05684 13.94 5.5656 14.5716 5.5656ZM9.50212 4.62864C6.8063 4.62864 4.63185 6.80358 4.63185 9.5C4.63185 12.1964 6.8063 14.3714 9.50212 14.3714C12.1979 14.3714 14.3724 12.1964 14.3724 9.5C14.3724 6.80358 12.1979 4.62864 9.50212 4.62864ZM9.50212 12.667C7.76001 12.667 6.33581 11.2467 6.33581 9.5C6.33581 7.75326 7.75577 6.33298 9.50212 6.33298C11.2485 6.33298 12.6684 7.75326 12.6684 9.5C12.6684 11.2467 11.2442 12.667 9.50212 12.667ZM15.1014 16.9067C15.9365 16.5717 16.5765 15.9316 16.9071 15.1006C17.3325 14.0315 17.3088 11.6929 17.2935 10.1769C17.2909 9.92547 17.2886 9.69664 17.2886 9.5C17.2886 9.30332 17.2909 9.07453 17.2935 8.82315C17.3088 7.308 17.3325 4.97214 16.9071 3.89942C16.5723 3.06421 15.9322 2.42402 15.1014 2.09333C14.0292 1.67018 11.6798 1.69272 10.1646 1.70725C9.91885 1.70961 9.695 1.71176 9.50212 1.71176C9.30548 1.71176 9.07674 1.70944 8.82542 1.70689C7.31061 1.69154 4.97527 1.66788 3.90279 2.09333C3.06776 2.42826 2.42772 3.06845 2.0971 3.89942C1.67404 4.97189 1.69658 7.32181 1.71111 8.83732C1.71347 9.08318 1.71562 9.30708 1.71562 9.5C1.71562 9.69668 1.7133 9.92547 1.71075 10.1769C1.6954 11.692 1.67174 14.0279 2.0971 15.1006C2.43196 15.9358 3.072 16.576 3.90279 16.9067C4.97502 17.3298 7.32442 17.3073 8.83959 17.2927C9.08539 17.2904 9.30924 17.2882 9.50212 17.2882C9.69876 17.2882 9.92749 17.2906 10.1788 17.2931C11.6936 17.3085 14.029 17.3321 15.1014 16.9067Z" fill="black"/>
</svg>
