<svg width="19" height="18" viewBox="0 0 19 18" fill="none" xmlns="http://www.w3.org/2000/svg">
<path id="snapchat" d="M18.9572 14.111C18.7638 14.5656 17.9464 14.8996 16.4575 15.1326C16.3809 15.2367 16.3174 15.6817 16.216 16.0284C16.1557 16.2366 16.0074 16.3601 15.766 16.3601L15.755 16.3599C15.4063 16.3599 15.0423 16.1982 14.3132 16.1982C13.329 16.1982 12.9898 16.4242 12.2256 16.9681C11.4155 17.5454 10.6384 18.0438 9.47856 17.9927C8.3042 18.08 7.3253 17.3604 6.77437 16.9679C6.00569 16.4203 5.66748 16.1983 4.68731 16.1983C3.98728 16.1983 3.54672 16.3748 3.24555 16.3748C2.94596 16.3748 2.82944 16.1907 2.78457 16.0367C2.68427 15.6931 2.62115 15.2416 2.54251 15.1343C1.77513 15.0143 0.0446905 14.7101 0.000604722 13.9321C-0.0104606 13.7296 0.131505 13.5512 0.330023 13.5181C2.91219 13.0898 4.07523 10.418 4.12359 10.3046C4.12633 10.298 4.12934 10.2917 4.13238 10.2853C4.27017 10.0035 4.30101 9.76743 4.22378 9.58404C4.03638 9.13918 3.22658 8.97957 2.88588 8.84375C2.00584 8.4935 1.88338 8.09105 1.93544 7.81522C2.02588 7.33521 2.74164 7.03982 3.16012 7.23734C3.4911 7.3937 3.78515 7.47283 4.03393 7.47283C4.22029 7.47283 4.33867 7.4278 4.40354 7.39164C4.32772 6.04779 4.14003 4.12737 4.61458 3.05489C5.86787 0.223365 8.52426 0.00332822 9.30804 0.00332822C9.34307 0.00332822 9.64726 0 9.68322 0C11.6184 0 13.4778 1.00146 14.3858 3.0531C14.86 4.12449 14.6734 6.03698 14.5971 7.39134C14.6559 7.42395 14.7588 7.46396 14.9162 7.47133C15.1536 7.46063 15.4289 7.38199 15.7352 7.23734C15.961 7.13092 16.2698 7.14531 16.4952 7.23951L16.4963 7.23989C16.8479 7.36647 17.0692 7.62188 17.0748 7.90815C17.0816 8.27264 16.7585 8.58744 16.1145 8.84371C16.0359 8.87494 15.9403 8.9056 15.8386 8.93814C15.475 9.05429 14.9257 9.23001 14.7767 9.584C14.6995 9.76739 14.7301 10.0032 14.868 10.2851C14.8712 10.2914 14.8741 10.2979 14.8768 10.3044C14.9251 10.4177 16.0872 13.0888 18.6705 13.5179C18.909 13.5575 19.0848 13.8125 18.9572 14.111Z" fill="black"/>
</svg>
