<svg aria-hidden="true" style="position: absolute; width: 0; height: 0; overflow: hidden;" version="1.1" xmlns="http://www.w3.org/2000/svg" xmlns:xlink="http://www.w3.org/1999/xlink">
<defs>
<symbol id="icon-Auroralogo" viewBox="0 0 168 32">
<path d="M9.689 31.684l1.998-5.822h12.033l1.998 5.822h8.264l-11.761-31.684h-8.945l-11.761 31.684h8.173zM21.722 19.994h-8.037l4.041-11.735 3.996 11.735zM52.259 30.646c1.438-0.873 2.52-2.046 3.247-3.521v4.559h7.81v-25.185h-7.81v13.36c0 1.835-0.454 3.25-1.362 4.242s-2.149 1.489-3.723 1.489c-1.514 0-2.717-0.474-3.61-1.422s-1.339-2.279-1.339-3.994v-13.676h-7.719v14.623c0 3.37 0.855 6.018 2.565 7.944s4.019 2.888 6.925 2.888c1.907 0 3.58-0.436 5.018-1.309zM77.573 31.684h-7.765v-25.185h7.765v4.739c0.969-1.535 2.217-2.753 3.746-3.656s3.186-1.354 4.972-1.354v8.26h-2.225c-2.058 0-3.655 0.436-4.79 1.309s-1.703 2.347-1.703 4.423v11.464zM109.291 30.443c1.983-1.038 3.542-2.535 4.677-4.491s1.703-4.243 1.703-6.86c0-2.618-0.568-4.905-1.703-6.86s-2.694-3.453-4.677-4.491c-1.983-1.038-4.231-1.557-6.743-1.557s-4.768 0.519-6.766 1.557c-1.998 1.038-3.564 2.535-4.7 4.491s-1.703 4.243-1.703 6.86c0 2.618 0.568 4.904 1.703 6.86s2.702 3.453 4.7 4.491c1.998 1.038 4.253 1.557 6.766 1.557s4.76-0.519 6.743-1.557zM102.548 25.275c-1.483 0-2.732-0.527-3.746-1.58s-1.521-2.588-1.521-4.604c0-2.016 0.507-3.558 1.521-4.626s2.263-1.602 3.746-1.602 2.725 0.534 3.723 1.602c0.999 1.068 1.498 2.61 1.498 4.626s-0.499 3.55-1.498 4.604c-0.999 1.053-2.24 1.58-3.723 1.58zM128.612 20.22c0-2.076 0.568-3.551 1.703-4.423s2.732-1.309 4.791-1.309h2.225v-8.26c-1.786 0-3.443 0.451-4.972 1.354s-2.777 2.121-3.746 3.656v-4.739h-7.765v25.185h7.765v-11.464zM151.361 32c-2.089 0-3.958-0.519-5.608-1.557s-2.952-2.535-3.905-4.491-1.43-4.243-1.43-6.86c0-2.648 0.477-4.942 1.43-6.883s2.255-3.43 3.905-4.468c1.65-1.038 3.519-1.557 5.608-1.557 1.938 0 3.602 0.436 4.995 1.309s2.422 2.061 3.088 3.566v-4.559h7.719v25.185h-7.719v-4.559c-0.666 1.505-1.695 2.693-3.088 3.566s-3.057 1.309-4.995 1.309zM149.84 23.605c1.014 1.083 2.354 1.625 4.019 1.625 1.635 0 2.974-0.557 4.019-1.67s1.566-2.603 1.566-4.468c0-1.896-0.522-3.393-1.566-4.491s-2.384-1.647-4.019-1.647c-1.665 0-3.004 0.542-4.019 1.625s-1.521 2.588-1.521 4.513c0 1.926 0.507 3.43 1.521 4.513z"></path>
</symbol>
</defs>
</svg>
