<svg width="21" height="15" viewBox="0 0 21 15" fill="none" xmlns="http://www.w3.org/2000/svg">
<path id="youtube" fill-rule="evenodd" clip-rule="evenodd" d="M18.7046 0.448672C19.6081 0.695586 20.3197 1.42316 20.5612 2.34699C21 4.02148 21 7.51516 21 7.51516C21 7.51516 21 11.0088 20.5612 12.6833C20.3197 13.6071 19.6081 14.3044 18.7046 14.5513C17.0668 15 10.5 15 10.5 15C10.5 15 3.93315 15 2.29544 14.5513C1.39193 14.3044 0.680333 13.6071 0.438815 12.6833C0 11.0088 0 7.51516 0 7.51516C0 7.51516 0 4.02148 0.438815 2.34699C0.680333 1.42316 1.39193 0.695625 2.29544 0.448672C3.93315 0 10.5 0 10.5 0C10.5 0 17.0669 0 18.7046 0.448672ZM8.35226 4.34316V10.6871L13.8409 7.51523L8.35226 4.34316Z" fill="black"/>
</svg>
